<svg width="34" height="33" viewBox="0 0 34 33" fill="none" xmlns="http://www.w3.org/2000/svg">
<path fill-rule="evenodd" clip-rule="evenodd" d="M17.0904 32.9804V26.7359C23.7001 26.7359 28.8309 20.1811 26.2926 13.2243C25.8265 11.9462 25.0865 10.7856 24.1247 9.82356C23.1628 8.86156 22.0022 8.12149 20.7242 7.65519C13.7674 5.13566 7.21263 10.2478 7.21263 16.8575H0.986206C0.986206 6.32303 11.1748 -1.89356 22.2212 1.55674C27.0418 3.07311 30.8941 6.9067 32.3917 11.7279C35.8427 22.7918 27.6442 32.9804 17.0904 32.9804Z" fill="#0080FF"/>
<path fill-rule="evenodd" clip-rule="evenodd" d="M10.9008 26.754H17.1085V20.5463H10.9015L10.9008 26.754ZM6.1171 31.5378H10.9002V26.7546H6.1171V31.5378ZM2.11804 26.7546H6.1171V22.7549H2.11804V26.7546Z" fill="#0080FF"/>
</svg>
