<svg width="33" height="24" viewBox="0 0 33 24" fill="none" xmlns="http://www.w3.org/2000/svg">
<path d="M31.9044 8.72845C31.817 8.65905 31.0012 8.04305 29.2808 8.04305C28.8265 8.04503 28.3731 8.08399 27.9252 8.15957C27.5922 5.87723 25.7052 4.76446 25.6206 4.71454L25.1586 4.44812L24.8548 4.88658C24.4743 5.47556 24.1965 6.12484 24.0334 6.80681C23.7254 8.10965 23.9127 9.33335 24.5745 10.3795C23.7753 10.8249 22.4933 10.9345 22.2339 10.9442H1.00864C0.454243 10.945 0.00437497 11.393 0.00135361 11.9473C-0.0234035 13.8068 0.29163 15.6551 0.930942 17.4014C1.66211 19.3189 2.74989 20.7313 4.16511 21.5957C5.75097 22.5669 8.32747 23.1219 11.248 23.1219C12.5674 23.126 13.8843 23.0066 15.1815 22.7653C16.9847 22.4342 18.7198 21.804 20.3151 20.9005C21.6295 20.1393 22.8126 19.171 23.8184 18.0327C25.5 16.1291 26.5018 14.009 27.2468 12.1249H27.5437C29.3848 12.1249 30.517 11.3881 31.1414 10.7708C31.5563 10.377 31.8802 9.89731 32.0904 9.36528L32.2222 8.97958L31.9044 8.72845Z" fill="#2496ED"/>
<path d="M2.97612 10.3226H5.8204C5.95758 10.3226 6.06874 10.2114 6.06874 10.0743V7.54075C6.0695 7.40357 5.95893 7.29178 5.8218 7.29102C5.82134 7.29102 5.82085 7.29102 5.8204 7.29102H2.97612C2.83894 7.29102 2.72778 7.40222 2.72778 7.53935V7.54075V10.0742C2.72778 10.2114 2.83894 10.3226 2.97612 10.3226Z" fill="#2496ED"/>
<path d="M6.89566 10.3226H9.73993C9.87711 10.3226 9.98827 10.2114 9.98827 10.0743V7.54075C9.98904 7.40357 9.87846 7.29178 9.74129 7.29102C9.74083 7.29102 9.74034 7.29102 9.73989 7.29102H6.89561C6.75766 7.29102 6.64587 7.40281 6.64587 7.54075V10.0742C6.64669 10.2116 6.75825 10.3226 6.89566 10.3226Z" fill="#2496ED"/>
<path d="M10.8748 10.3226H13.7191C13.8563 10.3226 13.9675 10.2114 13.9675 10.0743V7.54075C13.9682 7.40357 13.8577 7.29178 13.7205 7.29102C13.72 7.29102 13.7195 7.29102 13.7191 7.29102H10.8748C10.7376 7.29102 10.6265 7.40222 10.6265 7.53935V7.54075V10.0742C10.6265 10.2114 10.7377 10.3226 10.8748 10.3226Z" fill="#2496ED"/>
<path d="M14.8069 10.3226H17.6512C17.7886 10.3226 17.9002 10.2117 17.9009 10.0743V7.54075C17.9009 7.40281 17.7892 7.29102 17.6512 7.29102H14.8069C14.6698 7.29102 14.5586 7.40222 14.5586 7.53935V7.54075V10.0742C14.5586 10.2114 14.6698 10.3226 14.8069 10.3226Z" fill="#2496ED"/>
<path d="M6.89561 6.6778H9.73989C9.87725 6.67703 9.98822 6.56542 9.98822 6.42806V3.89458C9.98822 3.7574 9.87702 3.64624 9.73989 3.64624H6.89561C6.75825 3.64624 6.64664 3.75717 6.64587 3.89458V6.42806C6.64664 6.56569 6.75798 6.67703 6.89561 6.6778Z" fill="#2496ED"/>
<path d="M10.8748 6.6778H13.7191C13.8564 6.67703 13.9674 6.56542 13.9674 6.42806V3.89458C13.9674 3.7574 13.8562 3.64624 13.7191 3.64624H10.8748C10.7376 3.64624 10.6265 3.75744 10.6265 3.89458V6.42806C10.6265 6.56542 10.7374 6.67703 10.8748 6.6778Z" fill="#2496ED"/>
<path d="M14.8069 6.6778H17.6512C17.7888 6.67703 17.9002 6.56569 17.9009 6.42806V3.89458C17.9002 3.75717 17.7886 3.64624 17.6512 3.64624H14.8069C14.6698 3.64624 14.5586 3.75744 14.5586 3.89458V6.42806C14.5586 6.56542 14.6696 6.67703 14.8069 6.6778Z" fill="#2496ED"/>
<path d="M14.8069 3.0316H17.6512C17.7886 3.0316 17.9002 2.92062 17.9009 2.78326V0.248338C17.9002 0.110934 17.7886 0 17.6512 0H14.8069C14.6698 0 14.5586 0.111159 14.5586 0.248338V2.78322C14.5586 2.9204 14.6698 3.0316 14.8069 3.0316Z" fill="#2496ED"/>
<path d="M18.7736 10.3226H21.6179C21.7553 10.3226 21.8669 10.2117 21.8676 10.0743V7.54075C21.8676 7.40281 21.7558 7.29102 21.6179 7.29102H18.7736C18.6365 7.29102 18.5253 7.40222 18.5253 7.53935V7.54075V10.0742C18.5253 10.2114 18.6365 10.3226 18.7736 10.3226Z" fill="#2496ED"/>
</svg>
