<svg width="24" height="33" viewBox="0 0 24 33" fill="none" xmlns="http://www.w3.org/2000/svg">
<path d="M15.2752 11.6379L12.0527 14.6383L9.0614 8.60221L10.6067 5.13155C10.9972 4.43925 11.636 4.4301 12.0266 5.13155L15.2752 11.6379Z" fill="#FFA000"/>
<path d="M12.054 14.6371L0 25.8485L9.06268 8.60229L12.054 14.6371Z" fill="#F57F17"/>
<path d="M18.8085 7.04917C19.3858 6.49925 19.9802 6.68473 20.1304 7.46586L23.2641 25.697L12.8703 31.9369C12.5059 32.1407 11.5393 32.2204 11.5393 32.2204C11.5393 32.2204 10.6602 32.1132 10.3232 31.9278L0 25.8485L18.8085 7.04917Z" fill="#FFCA28"/>
<path d="M9.06266 8.6022L0 25.8484L4.03888 0.640703C4.1904 -0.140425 4.63322 -0.220105 5.03293 0.472199L9.06266 8.6022Z" fill="#FFA000"/>
</svg>
