<svg width="33" height="32" viewBox="0 0 33 32" fill="none" xmlns="http://www.w3.org/2000/svg">
<path d="M16.8558 0.155884C7.95899 0.155884 0.744629 7.36898 0.744629 16.2671C0.744629 23.3855 5.36096 29.4246 11.7625 31.555C12.5676 31.7041 12.8633 31.2055 12.8633 30.7799C12.8633 30.3958 12.8483 29.1266 12.8414 27.7803C8.35917 28.7549 7.41338 25.8794 7.41338 25.8794C6.68051 24.0172 5.62454 23.5221 5.62454 23.5221C4.16284 22.5221 5.73473 22.5426 5.73473 22.5426C7.3526 22.6563 8.2045 24.2029 8.2045 24.2029C9.64144 26.666 11.9735 25.9539 12.8929 25.5423C13.0374 24.5009 13.455 23.7902 13.9157 23.3879C10.3373 22.9804 6.57538 21.599 6.57538 15.4256C6.57538 13.6668 7.20477 12.2294 8.23546 11.1012C8.06817 10.6953 7.51674 9.05674 8.39151 6.83753C8.39151 6.83753 9.74442 6.4045 12.8232 8.48901C14.1083 8.13193 15.4866 7.95301 16.8558 7.94694C18.225 7.95301 19.6043 8.13193 20.8919 8.48901C23.9671 6.4045 25.3181 6.83753 25.3181 6.83753C26.195 9.05674 25.6433 10.6953 25.476 11.1012C26.509 12.2294 27.1341 13.6666 27.1341 15.4256C27.1341 21.6136 23.3651 22.9762 19.7776 23.375C20.3554 23.875 20.8703 24.8556 20.8703 26.3586C20.8703 28.5142 20.8516 30.2492 20.8516 30.7799C20.8516 31.2087 21.1416 31.7111 21.9584 31.5529C28.3563 29.4201 32.9669 23.3831 32.9669 16.2671C32.9669 7.36898 25.7535 0.155884 16.8558 0.155884Z" fill="#161614"/>
<path d="M6.77869 23.1066C6.74331 23.1866 6.6172 23.2106 6.50259 23.1557C6.38571 23.1032 6.32001 22.994 6.35791 22.9136C6.39266 22.8312 6.51877 22.8082 6.6354 22.8636C6.75253 22.916 6.81925 23.0262 6.77869 23.1066ZM7.5712 23.8137C7.49437 23.8849 7.34413 23.8518 7.24216 23.7392C7.13678 23.6269 7.11707 23.4768 7.19503 23.4044C7.27426 23.3333 7.41995 23.3665 7.52558 23.479C7.63097 23.5925 7.65144 23.7418 7.57107 23.8138L7.5712 23.8137ZM8.11492 24.7184C8.0161 24.787 7.85462 24.7227 7.75492 24.5794C7.65624 24.4362 7.65624 24.2644 7.75707 24.1955C7.85715 24.1267 8.0161 24.1886 8.11719 24.3307C8.21575 24.4764 8.21575 24.6483 8.11479 24.7185L8.11492 24.7184ZM9.03429 25.7663C8.94597 25.8636 8.75795 25.8375 8.62022 25.7046C8.47946 25.5747 8.44016 25.3904 8.52874 25.2929C8.61807 25.1954 8.80723 25.2228 8.94597 25.3546C9.08584 25.4842 9.12855 25.67 9.03442 25.7663H9.03429ZM10.2226 26.1201C10.1838 26.2462 10.0026 26.3035 9.82011 26.25C9.6379 26.1947 9.51862 26.0469 9.55539 25.9194C9.5933 25.7924 9.77525 25.7327 9.9591 25.79C10.1411 25.845 10.2606 25.9917 10.2227 26.1201H10.2226ZM11.5751 26.2701C11.5796 26.403 11.4248 26.5132 11.2333 26.5156C11.0406 26.5197 10.8848 26.4122 10.8828 26.2816C10.8828 26.1474 11.034 26.0382 11.2266 26.035C11.4182 26.0312 11.5751 26.138 11.5751 26.2701ZM12.9036 26.2191C12.9266 26.3488 12.7934 26.482 12.6033 26.5173C12.4162 26.5515 12.2431 26.4715 12.2193 26.343C12.196 26.21 12.3317 26.077 12.5183 26.0425C12.7089 26.0094 12.8793 26.0873 12.9036 26.2191Z" fill="#161614"/>
</svg>
