<svg width="33" height="13" viewBox="0 0 33 13" fill="none" xmlns="http://www.w3.org/2000/svg">
<path d="M3.17622 4.49509C3.11347 4.49509 3.09778 4.46371 3.12916 4.41665L3.45862 3.99306C3.48999 3.94599 3.56844 3.91462 3.63119 3.91462H9.23198C9.29474 3.91462 9.31043 3.96168 9.27905 4.00875L9.01234 4.41665C8.98097 4.46371 8.90252 4.51078 8.85546 4.51078L3.17622 4.49509ZM0.807261 5.93843C0.744507 5.93843 0.728818 5.90706 0.760195 5.85999L1.08965 5.4364C1.12103 5.38934 1.19947 5.35796 1.26223 5.35796H8.41618C8.47894 5.35796 8.51031 5.40502 8.49462 5.45209L8.36912 5.82861C8.35343 5.89137 8.29067 5.92274 8.22792 5.92274L0.807261 5.93843ZM4.60388 7.38177C4.54112 7.38177 4.52543 7.33471 4.55681 7.28764L4.77645 6.89543C4.80783 6.84837 4.87058 6.8013 4.93334 6.8013H8.07103C8.13379 6.8013 8.16517 6.84836 8.16517 6.91112L8.13379 7.28764C8.13379 7.3504 8.07103 7.39746 8.02397 7.39746L4.60388 7.38177ZM20.8885 4.2127C19.9002 4.46371 19.2256 4.65198 18.2529 4.90299C18.0175 4.96575 18.0019 4.98143 17.7979 4.74611C17.5626 4.4794 17.39 4.30683 17.0605 4.14994C16.0722 3.6636 15.1152 3.8048 14.2209 4.38527C13.1541 5.07557 12.605 6.09532 12.6207 7.36609C12.6364 8.62116 13.4993 9.65661 14.7386 9.82918C15.8055 9.97038 16.6997 9.59385 17.4057 8.79374C17.5469 8.62116 17.6724 8.4329 17.8293 8.21326H14.8014C14.4719 8.21326 14.3935 8.00931 14.5033 7.74261C14.7073 7.25627 15.0838 6.44046 15.3034 6.03256C15.3505 5.93843 15.4603 5.78155 15.6956 5.78155H21.4063C21.3749 6.20514 21.3749 6.62873 21.3121 7.05232C21.1396 8.18189 20.716 9.21733 20.0257 10.1273C18.8961 11.6177 17.4214 12.5433 15.5544 12.7943C14.017 12.9983 12.5893 12.7002 11.3342 11.7589C10.1733 10.8803 9.51438 9.71936 9.3418 8.27602C9.13785 6.56597 9.63988 5.0285 10.6753 3.67929C11.7892 2.22026 13.2639 1.29464 15.0681 0.96518C16.5428 0.698476 17.9548 0.871049 19.2256 1.73392C20.057 2.28301 20.6532 3.03606 21.0454 3.94599C21.1396 4.08719 21.0768 4.16563 20.8885 4.2127Z" fill="#00ACD7"/>
<path d="M26.0815 12.8884C24.6538 12.857 23.3517 12.4491 22.2535 11.5078C21.3278 10.7077 20.7474 9.68797 20.5591 8.47996C20.2767 6.70716 20.7631 5.13831 21.8299 3.74203C22.9751 2.23594 24.3557 1.45151 26.2227 1.12206C27.8229 0.839663 29.329 0.996548 30.6939 1.92217C31.9333 2.76935 32.702 3.91461 32.9059 5.4207C33.1726 7.53865 32.5608 9.26438 31.1018 10.7391C30.0663 11.7902 28.7956 12.4491 27.3365 12.7472C26.9129 12.8257 26.4894 12.8414 26.0815 12.8884ZM29.8153 6.55027C29.7996 6.34632 29.7996 6.18944 29.7682 6.03255C29.4859 4.47939 28.0582 3.60084 26.5678 3.94598C25.1088 4.27544 24.1675 5.20106 23.8223 6.67578C23.5399 7.89948 24.1361 9.13887 25.2657 9.6409C26.1285 10.0174 26.9914 9.97036 27.8229 9.54677C29.0623 8.90355 29.7369 7.89948 29.8153 6.55027Z" fill="#00ACD7"/>
</svg>
