<svg width="34" height="33" viewBox="0 0 34 33" fill="none" xmlns="http://www.w3.org/2000/svg">
<g clip-path="url(#clip0_15_115)">
<path d="M0.977783 0.758179H33.2V32.9804H0.977783V0.758179Z" fill="#6762A5"/>
<path d="M19.2478 26.1479V15.9992C19.2478 15.9992 19.9077 13.571 11.1162 16.993C11.1007 17.0368 11.1007 7.60728 11.1007 7.60728L13.9736 7.58923V13.6303C13.9736 13.6303 22.0163 10.4622 22.0163 16.0327V26.1479H19.2478ZM20.8846 11.2458H17.8377C18.9346 9.90537 19.927 7.60728 19.927 7.60728H23.077C23.0783 7.60728 22.5383 9.10497 20.8846 11.2458ZM11.1523 26.1312V20.3518L14.0419 23.2415L11.1523 26.1312Z" fill="white"/>
</g>
<defs>
<clipPath id="clip0_15_115">
<rect width="32.2222" height="32.2222" fill="white" transform="translate(0.977783 0.758179)"/>
</clipPath>
</defs>
</svg>
