<svg width="42" height="36" viewBox="0 0 42 36" fill="none" xmlns="http://www.w3.org/2000/svg">
<g filter="url(#filter0_d_13_66)">
<path d="M35.9375 21.3037C34.2179 22.2 25.31 25.8626 23.4135 26.8513C21.5171 27.8401 20.4636 27.8306 18.9654 27.1144C17.4673 26.3982 7.98767 22.569 6.28001 21.7528C5.42663 21.345 4.97778 21.0006 4.97778 20.6753V17.4184C4.97778 17.4184 17.3191 14.7317 19.3115 14.0169C21.3038 13.3021 21.995 13.2763 23.6905 13.8973C25.3862 14.5186 35.5243 16.3477 37.2 16.9615L37.1992 20.1724C37.1995 20.4943 36.8128 20.8475 35.9375 21.3037Z" fill="#912626"/>
<path d="M35.937 18.066C34.2175 18.9619 25.3098 22.6247 23.4134 23.6133C21.5171 24.6022 20.4636 24.5925 18.9655 23.8763C17.4673 23.1606 7.98801 19.3309 6.28049 18.5151C4.57296 17.6988 4.53721 17.1371 6.21453 16.4803C7.89185 15.8233 17.3191 12.1247 19.3117 11.4099C21.304 10.6953 21.9951 10.6693 23.6906 11.2905C25.3861 11.9116 34.2407 15.436 35.9161 16.0496C37.5922 16.664 37.6565 17.1698 35.937 18.066Z" fill="#C6302B"/>
<path d="M35.9375 16.0337C34.2179 16.9301 25.31 20.5926 23.4135 21.5817C21.5171 22.5702 20.4636 22.5606 18.9654 21.8444C17.4672 21.1286 7.98767 17.2991 6.28001 16.4828C5.42663 16.075 4.97778 15.7311 4.97778 15.4057V12.1484C4.97778 12.1484 17.3191 9.46188 19.3115 8.74707C21.3038 8.03227 21.995 8.00634 23.6905 8.6275C25.3863 9.24866 35.5244 11.0774 37.2 11.6913L37.1992 14.9025C37.1995 15.2244 36.8128 15.5776 35.9375 16.0337Z" fill="#912626"/>
<path d="M35.937 12.7961C34.2175 13.6922 25.3098 17.3547 23.4134 18.3437C21.5171 19.3323 20.4636 19.3226 18.9655 18.6064C17.4673 17.8907 7.98801 14.061 6.28049 13.2452C4.57296 12.4292 4.53721 11.8673 6.21453 11.2102C7.89185 10.5536 17.3192 6.85471 19.3117 6.14003C21.304 5.42535 21.9951 5.39942 23.6906 6.02058C25.3861 6.64161 34.2407 10.1658 35.9161 10.7797C37.5922 11.3939 37.6565 11.8999 35.937 12.7961Z" fill="#C6302B"/>
<path d="M35.9375 10.5684C34.2179 11.4646 25.31 15.1273 23.4135 16.1164C21.5171 17.105 20.4636 17.0953 18.9654 16.3791C17.4672 15.6633 7.98767 11.8336 6.28001 11.0177C5.42663 10.6095 4.97778 10.2655 4.97778 9.94054V6.68307C4.97778 6.68307 17.3191 3.99666 19.3115 3.28198C21.3038 2.56705 21.995 2.54137 23.6905 3.16241C25.3863 3.78357 35.5244 5.61231 37.2 6.22617L37.1992 9.43732C37.1995 9.75891 36.8128 10.1121 35.9375 10.5684Z" fill="#912626"/>
<path d="M35.9371 7.3307C34.2176 8.22688 25.3099 11.8896 23.4135 12.8782C21.5171 13.8668 20.4636 13.8571 18.9655 13.1413C17.4674 12.4251 7.98807 8.59568 6.28067 7.77967C4.57302 6.9638 4.5374 6.40179 6.21459 5.74489C7.89191 5.08811 17.3193 1.38973 19.3118 0.674795C21.304 -0.0400098 21.9952 -0.0656869 23.6906 0.555472C25.3862 1.17663 34.2407 4.70081 35.9162 5.31467C37.5922 5.9284 37.6566 6.43452 35.9371 7.3307Z" fill="#C6302B"/>
<path d="M25.0265 4.16224L22.2561 4.44985L21.6359 5.94214L20.6343 4.2769L17.4353 3.98942L19.8223 3.12861L19.1061 1.80725L21.3409 2.68128L23.4477 1.99152L22.8783 3.35782L25.0265 4.16224ZM21.4705 11.4019L16.3003 9.25749L23.7089 8.12028L21.4705 11.4019ZM14.3023 4.99171C16.4893 4.99171 18.2622 5.67895 18.2622 6.52654C18.2622 7.37439 16.4893 8.0615 14.3023 8.0615C12.1154 8.0615 10.3425 7.37426 10.3425 6.52654C10.3425 5.67895 12.1154 4.99171 14.3023 4.99171Z" fill="white"/>
<path d="M28.3005 4.57019L32.6853 6.3029L28.3043 8.03397L28.3005 4.57007" fill="#621B1C"/>
<path d="M23.4496 6.48906L28.3005 4.57019L28.3043 8.03397L27.8287 8.22001L23.4496 6.48906Z" fill="#9A2928"/>
</g>
<defs>
<filter id="filter0_d_13_66" x="0.977783" y="0.112671" width="40.2224" height="35.5131" filterUnits="userSpaceOnUse" color-interpolation-filters="sRGB">
<feFlood flood-opacity="0" result="BackgroundImageFix"/>
<feColorMatrix in="SourceAlpha" type="matrix" values="0 0 0 0 0 0 0 0 0 0 0 0 0 0 0 0 0 0 127 0" result="hardAlpha"/>
<feOffset dy="4"/>
<feGaussianBlur stdDeviation="2"/>
<feComposite in2="hardAlpha" operator="out"/>
<feColorMatrix type="matrix" values="0 0 0 0 0 0 0 0 0 0 0 0 0 0 0 0 0 0 0.25 0"/>
<feBlend mode="normal" in2="BackgroundImageFix" result="effect1_dropShadow_13_66"/>
<feBlend mode="normal" in="SourceGraphic" in2="effect1_dropShadow_13_66" result="shape"/>
</filter>
</defs>
</svg>
