<svg width="34" height="20" viewBox="0 0 34 20" fill="none" xmlns="http://www.w3.org/2000/svg">
<path d="M17.0336 0.2052C12.7372 0.2052 10.052 2.35281 8.97784 6.64762C10.5892 4.50001 12.4688 3.69496 14.6168 4.23166C15.8425 4.53789 16.7185 5.42715 17.6884 6.4111C19.2678 8.01395 21.0959 9.86903 25.0894 9.86903C29.3854 9.86903 32.0709 7.72142 33.1447 3.42621C31.5338 5.57382 29.6541 6.37927 27.5057 5.84257C26.2804 5.53634 25.4044 4.64708 24.4346 3.66313C22.8551 2.06028 21.0266 0.2052 17.0336 0.2052ZM8.97784 9.86903C4.68181 9.86903 1.99629 12.0166 0.922485 16.3119C2.5334 14.1642 4.41306 13.3588 6.56148 13.8959C7.78678 14.2025 8.66275 15.0914 9.6326 16.0749C11.2121 17.6778 13.0406 19.5333 17.0336 19.5333C21.33 19.5333 24.0151 17.3857 25.0894 13.0904C23.478 15.238 21.5984 16.0435 19.4504 15.5064C18.2247 15.2006 17.3487 14.3109 16.3788 13.3274C14.7994 11.7245 12.9713 9.86903 8.97784 9.86903Z" fill="#06B6D4"/>
</svg>
